<svg version="1.0" xmlns="http://www.w3.org/2000/svg"
width="366.000000pt" height="367.000000pt" viewBox="0 0 366.000000 367.000000"
preserveAspectRatio="xMidYMid meet">
<metadata>
</metadata>
<g transform="translate(0.000000,367.000000) scale(0.100000,-0.100000)"
fill="#000000" stroke="none">
<path d="M1610 3663 c-100 -12 -288 -57 -380 -88 -616 -215 -1071 -739 -1202
-1387 -20 -99 -23 -142 -23 -353 0 -211 3 -254 23 -353 149 -734 701 -1293
1431 -1450 117 -25 143 -26 371 -26 228 0 254 1 371 26 730 157 1282 716 1431
1450 20 99 23 142 23 353 0 211 -3 254 -23 353 -148 732 -702 1294 -1426 1448
-105 23 -150 26 -341 29 -121 2 -236 1 -255 -2z m351 -121 c14 -12 20 -25 16
-35 -5 -14 -17 -16 -79 -11 -63 6 -76 4 -97 -13 -27 -22 -31 -67 -8 -91 10 -9
31 -15 55 -14 50 2 82 -19 66 -45 -8 -14 -28 -19 -80 -23 -66 -5 -69 -6 -72
-32 -5 -38 29 -58 99 -58 50 0 60 -4 77 -25 66 -84 -117 -199 -245 -155 -47
17 -58 48 -44 117 35 164 40 213 31 260 -31 149 -37 143 130 143 109 0 131 -3
151 -18z m-451 -62 c7 -12 5 -34 -5 -67 -28 -90 -17 -141 53 -241 42 -62 49
-117 18 -151 -24 -26 -77 -37 -106 -21 -21 11 -22 17 -17 74 4 36 1 75 -6 96
-10 30 -17 35 -42 35 -27 0 -30 -4 -33 -34 -2 -23 5 -50 22 -81 33 -60 33 -72
-2 -112 -38 -42 -85 -43 -119 -4 -22 26 -23 33 -17 114 5 75 3 96 -16 147 -41
114 -45 132 -32 159 11 24 56 45 69 33 3 -3 11 -38 19 -78 16 -83 26 -99 64
-99 44 0 54 22 51 108 -2 84 10 125 42 139 26 12 44 7 57 -17z m787 -11 c69
-33 103 -72 103 -119 0 -45 -14 -66 -65 -96 -51 -30 -54 -41 -25 -114 27 -68
25 -91 -7 -123 -37 -35 -70 -46 -112 -36 -74 17 -82 77 -19 145 36 39 40 48
32 71 -5 14 -17 31 -26 37 -30 19 -50 -14 -57 -95 -6 -58 -11 -75 -30 -90 -46
-38 -121 -11 -121 44 0 12 25 65 55 117 61 105 87 178 83 235 -5 74 66 82 189
24z m-1180 -145 c2 -6 -12 -31 -32 -57 -27 -36 -34 -52 -29 -72 6 -23 47 -90
109 -174 36 -49 34 -103 -4 -142 -20 -20 -39 -29 -61 -29 -22 0 -41 9 -61 29
-29 29 -29 29 -29 156 0 69 -5 135 -10 146 -13 24 -38 24 -70 -1 -36 -28 -70
-26 -70 3 0 30 27 55 73 68 19 5 61 27 93 49 57 39 84 46 91 24z m1589 -105
c45 -21 84 -71 84 -107 0 -46 -52 -30 -74 23 -24 56 -86 61 -107 8 -9 -23 -7
-41 15 -103 33 -95 33 -122 -2 -161 -58 -65 -180 -45 -237 38 -35 52 -34 102
4 142 43 46 76 40 115 -22 12 -20 24 -27 39 -25 24 3 26 25 12 120 -7 44 -5
49 23 78 36 36 68 38 128 9z m217 -153 c23 -18 22 -31 -7 -69 -32 -43 -39 -72
-25 -99 26 -50 61 -50 124 -2 45 34 48 34 71 19 45 -29 23 -67 -73 -130 -32
-21 -47 -41 -68 -90 -37 -87 -63 -110 -114 -101 -30 4 -44 2 -62 -13 -31 -25
-18 -39 41 -43 37 -2 46 -7 48 -24 2 -15 -7 -29 -26 -43 -39 -28 -48 -27 -47
7 0 25 -4 27 -45 32 -61 7 -66 33 -14 76 33 28 36 34 25 48 -8 9 -26 16 -42
16 -30 0 -59 23 -59 46 0 17 1 17 36 -1 40 -21 57 -19 83 8 12 13 44 34 72 47
33 16 51 31 55 47 8 32 -22 65 -55 61 -25 -3 -38 -20 -61 -84 -19 -54 -78 -66
-124 -25 -55 48 -36 103 61 176 36 27 83 73 105 102 42 55 67 65 101 39z
m-2100 -20 c49 -20 115 -100 133 -162 17 -60 12 -111 -17 -161 -11 -19 -14
-35 -8 -38 12 -8 70 4 87 17 9 8 12 5 12 -11 0 -22 -20 -34 -72 -45 -36 -8
-37 -38 -2 -56 60 -33 50 -80 -17 -80 -39 0 -43 -5 -40 -42 3 -26 -14 -22 -49
10 -45 39 -33 62 31 62 42 0 49 3 49 19 0 29 -79 71 -111 59 -36 -14 -119 8
-161 42 -39 32 -78 117 -78 170 0 56 22 131 47 161 52 61 129 83 196 55z
m-352 -341 c52 -44 81 -59 189 -93 61 -19 87 -53 75 -99 -8 -34 -49 -73 -77
-73 -36 0 -62 23 -112 99 -55 84 -106 126 -106 87 0 -24 99 -164 135 -192 18
-14 36 -32 39 -40 8 -22 -13 -60 -41 -73 -22 -10 -33 -7 -87 23 -60 33 -171
64 -184 51 -10 -10 54 -61 119 -96 90 -48 115 -82 111 -145 -3 -29 -50 -74
-77 -74 -34 0 -71 45 -101 123 -20 52 -43 88 -86 134 -59 63 -66 80 -48 113
15 27 58 33 130 16 78 -19 90 -19 90 -5 0 7 -20 54 -45 106 -42 87 -45 98 -35
129 10 30 32 53 52 54 3 0 30 -20 59 -45z m2803 -51 c15 -39 6 -52 -59 -83
-42 -19 -92 -55 -139 -100 -75 -71 -98 -81 -137 -61 -24 13 -49 61 -49 95 0
36 48 82 91 88 150 22 174 27 207 51 43 29 77 33 86 10z m116 -186 c63 -110
77 -237 33 -296 -43 -57 -98 -33 -151 66 -49 92 -52 93 -118 33 -34 -32 -65
-51 -80 -51 -33 0 -59 43 -59 98 0 35 5 48 28 67 15 13 44 27 65 30 80 14 141
36 188 69 27 19 52 34 56 35 4 1 21 -23 38 -51z"/>
<path d="M2181 3428 c-24 -78 -24 -105 0 -122 26 -18 81 -21 109 -6 27 15 35
65 15 96 -18 29 -72 64 -97 64 -10 0 -21 -13 -27 -32z"/>
<path d="M670 2980 c-25 -25 -27 -107 -5 -150 57 -111 205 -56 166 62 -6 19
-25 50 -42 71 -24 30 -37 37 -65 37 -21 0 -42 -8 -54 -20z"/>
<path d="M3308 2413 c-48 -30 -56 -79 -22 -144 27 -54 90 -63 115 -17 14 26 6
106 -16 147 -17 35 -37 38 -77 14z"/>
</g>
</svg>
